<svg xmlns="http://www.w3.org/2000/svg" width="766" height="93" viewBox="0 0 766 93">
    <g fill="none" fill-rule="evenodd">
        <g fill-rule="nonzero" stroke="#FFF">
            <g>
                <g>
                    <g>
                        <g>
                            <path d="M118.499 81l-13.108 28.244c-1.895 4.093-3.631 7.366-6.378 11.467h1.067c5.375-5.192 8.234-7.238 12.184-10.24L150.352 81H206l-64.885 44.616L168.445 172h-59.47l-12.352-29.192c-1.29-2.731-2.102-6.004-2.747-8.735H92.81c-.605 3.137-1.537 5.598-2.922 8.6L76.269 172H27l42.222-91h49.277zM310 81l-11.436 24.972h-43.59l-3.875 8.456h39.618l-10.925 23.873h-39.626l-3.995 8.735h44.857L269.592 172H174l41.66-91H310zm78.56 0l-.717 37.25c-.08 4.778-1.312 9.277-1.67 10.504h1.273c2.036-3.958 4.136-6.69 7.596-10.512L428.75 81H481l-18.994 91h-49.283l12.504-40.794c1.026-3.137 1.551-5.176 3.309-8.998h-.843c-1.702 2.31-4.614 5.86-6.284 7.644L380.995 172h-30.034l-.422-39.838c.032-3.273.303-6.132 1.854-9.954h-1.48c-.819 1.768-2.465 5.32-3.492 7.087L320.712 172H271l64.896-91h52.663zM609 81l-13.723 29.606-28.5-.82L537.927 172H487.4l28.851-62.214-29.251.82L500.73 81H609zm88.748 0L706 172h-54.052l.58-11.33h-38.7L604.845 172H551l90.394-91h56.354zm73.354 0c14.774 0 24.384 16.307 17.772 30.169L759.854 172H707l43.411-91h20.69zm-114.11 31h-1.9c-1.972 3.725-4.272 6.79-7.05 9.98L633 139h20.511l1.509-17.02c.367-3.46 1.102-6.783 1.98-9.972l-.008-.008z" transform="translate(-27 -1737) translate(1 1657)"/>
                        </g>
                    </g>
                </g>
            </g>
        </g>
    </g>
</svg>
