<svg xmlns="http://www.w3.org/2000/svg" width="93" height="17.32" viewBox="0 0 93 17.32">
  <g id="Group_1189" data-name="Group 1189" transform="translate(763.488 -483.924)">
    <g id="Group_1186" data-name="Group 1186" transform="translate(-741.175 488.781)">
      <g id="Group_1185" data-name="Group 1185" transform="translate(0 0)">
        <path id="Path_77979" data-name="Path 77979" d="M-619.157,514.851v1.365h-3.455a2.242,2.242,0,0,0-2.113,2.487,2.236,2.236,0,0,0,2.069,2.487h3.5v1.365h-3.51a3.749,3.749,0,0,1-3.73-3.852,3.749,3.749,0,0,1,3.73-3.852Z" transform="translate(626.398 -514.675)" fill="#022344"/>
        <path id="Path_77980" data-name="Path 77980" d="M-576.428,517.191c0-2.278,1.948-3.422,3.907-3.422s3.9,1.145,3.9,3.422v1.156c0,2.278-1.948,3.422-3.9,3.422s-3.907-1.145-3.907-3.422Zm1.607,1.156c0,1.221,1.144,1.827,2.3,1.827s2.289-.605,2.289-1.827v-1.156c0-1.221-1.145-1.838-2.289-1.838s-2.3.616-2.3,1.838Z" transform="translate(584.561 -513.769)" fill="#022344"/>
        <path id="Path_77981" data-name="Path 77981" d="M-517.521,521.7a1.324,1.324,0,0,1-1.364-1.431v-3.015a3.447,3.447,0,0,1,3.708-3.423,3.438,3.438,0,0,1,3.7,3.423V521.7h-.242a1.324,1.324,0,0,1-1.365-1.431V519.7h-4.193v2Zm4.435-3.378v-1.067a1.908,1.908,0,0,0-2.091-1.838,1.918,1.918,0,0,0-2.1,1.838v1.067Z" transform="translate(536.384 -513.825)" fill="#022344"/>
        <path id="Path_77982" data-name="Path 77982" d="M-457.618,514.851v1.365h-3.455a2.242,2.242,0,0,0-2.113,2.487,2.236,2.236,0,0,0,2.069,2.487h3.5v1.365h-3.51a3.749,3.749,0,0,1-3.73-3.852,3.749,3.749,0,0,1,3.73-3.852Z" transform="translate(491.151 -514.675)" fill="#022344"/>
        <path id="Path_77983" data-name="Path 77983" d="M-402.714,522.554a1.243,1.243,0,0,1-1.277-1.343v-1.827h-4.358v3.169h-.33a1.243,1.243,0,0,1-1.277-1.343v-6.36h1.607v3.158h4.358v-3.158h1.607v7.7Z" transform="translate(445.183 -514.675)" fill="#022344"/>
        <path id="Path_77984" data-name="Path 77984" d="M-336.462,522.554a1.243,1.243,0,0,1-1.277-1.343v-6.36h3.973a2.38,2.38,0,0,1,2.366,2.476,2.327,2.327,0,0,1-2.366,2.465h-2.366v2.762Zm.33-4.138h2.179a1,1,0,0,0,1-1.089,1.014,1.014,0,0,0-1-1.1h-2.179Z" transform="translate(384.721 -514.675)" fill="#022344"/>
        <path id="Path_77985" data-name="Path 77985" d="M-282.864,522.389a1.657,1.657,0,0,1-.638.132,1.567,1.567,0,0,1-1.287-.715l-1.507-2.223h-1.893v2.971h-.33a1.243,1.243,0,0,1-1.276-1.343v-6.36h4.435a2.332,2.332,0,0,1,2.377,2.366,2.369,2.369,0,0,1-1.6,2.256l2.047,2.773Zm-5.326-4.182h2.388a1.02,1.02,0,0,0,1.133-.99,1.02,1.02,0,0,0-1.133-.99h-2.388Z" transform="translate(344.582 -514.675)" fill="#022344"/>
        <path id="Path_77986" data-name="Path 77986" d="M-240.03,517.191c0-2.278,1.948-3.422,3.907-3.422s3.9,1.145,3.9,3.422v1.156c0,2.278-1.948,3.422-3.9,3.422s-3.907-1.145-3.907-3.422Zm1.607,1.156c0,1.221,1.144,1.827,2.3,1.827s2.289-.605,2.289-1.827v-1.156c0-1.221-1.145-1.838-2.289-1.838s-2.3.616-2.3,1.838Z" transform="translate(302.915 -513.769)" fill="#022344"/>
      </g>
    </g>
    <circle id="Ellipse_545" data-name="Ellipse 545" cx="6.705" cy="6.705" r="6.705" transform="translate(-761.533 485.878)" fill="#14578e"/>
    <path id="Path_77987" data-name="Path 77987" d="M-754.828,501.243a8.67,8.67,0,0,1-8.66-8.66,8.67,8.67,0,0,1,8.66-8.66,8.67,8.67,0,0,1,8.66,8.66A8.67,8.67,0,0,1-754.828,501.243Zm0-16.506a7.855,7.855,0,0,0-7.846,7.846,7.855,7.855,0,0,0,7.846,7.846,7.855,7.855,0,0,0,7.846-7.846A7.855,7.855,0,0,0-754.828,484.737Z" fill="#022344"/>
    <g id="Group_1188" data-name="Group 1188" transform="translate(-759.51 486.98)">
      <g id="Group_1187" data-name="Group 1187" transform="translate(0 0)">
        <path id="Path_77988" data-name="Path 77988" d="M-736.358,534.966l-.071-1.023c-.019.033-.028.048-.036.064a.629.629,0,0,1-.992.174c-.23-.218-.45-.447-.674-.671-.193-.194-.388-.387-.579-.582a1.061,1.061,0,0,1-.326-.6.955.955,0,0,1,.078-.529,3.508,3.508,0,0,1,.234-.442c.406-.638.809-1.277,1.229-1.905a1.792,1.792,0,0,1,1.347-.806c.114-.013.23,0,.345-.009.042,0,.049.026.061.054l.516,1.232c.171.409.342.817.514,1.225a.15.15,0,0,1,0,.123c-.116.3-.229.605-.341.909a.145.145,0,0,0,.1.21q.326.114.653.224a.158.158,0,0,0,.219-.1q.2-.539.4-1.08a.146.146,0,0,0-.1-.207c-.075-.028-.151-.054-.227-.081,0,0,0,0-.009-.011l.136-.326q.439-1.052.877-2.1a.093.093,0,0,1,.1-.065,1.849,1.849,0,0,1,1.062.253,1.807,1.807,0,0,1,.609.569q.65,1.011,1.3,2.023a1.548,1.548,0,0,1,.227.558.91.91,0,0,1-.231.791c-.131.15-.274.291-.414.433-.294.3-.6.59-.881.9a.644.644,0,0,1-1.06-.124s-.008-.008-.021-.02c-.011.165-.022.323-.032.48l-.032.473Zm5.348-2.841-1.005-1.378-.233,2.638Zm-6.706,0,1.237,1.244-.23-2.6-.014,0Z" transform="translate(739.045 -524.411)" fill="#f2f2f2"/>
        <path id="Path_77989" data-name="Path 77989" d="M-718.738,502.706a1.641,1.641,0,0,1,1.651,1.652,1.645,1.645,0,0,1-1.638,1.633,1.646,1.646,0,0,1-1.647-1.624A1.641,1.641,0,0,1-718.738,502.706Z" transform="translate(723.412 -502.706)" fill="#f2f2f2"/>
        <path id="Path_77990" data-name="Path 77990" d="M-716.15,528.674h1.907l-.952,2.281Z" transform="translate(719.876 -524.447)" fill="#f2f2f2"/>
      </g>
    </g>
  </g>
</svg>
