<svg xmlns="http://www.w3.org/2000/svg" width="97" height="12" viewBox="0 0 97 12">
    <g fill="none" fill-rule="evenodd">
        <g fill="#FFF" fill-rule="nonzero">
            <g>
                <g>
                    <g>
                        <path d="M11.49 0L9.844 3.547c-.238.514-.456.925-.801 1.44h.134c.675-.652 1.034-.909 1.53-1.286L15.49 0h6.988L14.33 5.603l3.432 5.825h-7.468L8.743 7.762c-.162-.343-.264-.754-.345-1.097h-.134c-.076.394-.193.703-.367 1.08l-1.71 3.683H0L5.302 0h6.188zm24.05 0l-1.434 3.136H28.64l-.486 1.062h4.968l-1.37 2.998h-4.969l-.501 1.097h5.625l-1.434 3.135H18.486L23.71 0h11.83zm9.834 0l-.09 4.678c-.01.6-.165 1.165-.21 1.319h.16c.256-.497.52-.84.955-1.32L50.427 0h6.569l-2.388 11.428h-6.196l1.572-5.123c.129-.394.195-.65.416-1.13h-.106c-.214.29-.58.736-.79.96l-5.081 5.293h-3.776l-.053-5.003c.004-.411.038-.77.233-1.25h-.186c-.103.222-.31.668-.439.89l-3.358 5.363h-6.25L38.753 0h6.621zm27.747 0l-1.717 3.718-3.566-.103-3.61 7.813h-6.322l3.61-7.813-3.66.103L59.574 0h13.547zm11.143 0l1.039 11.429h-6.806l.073-1.423h-4.873l-1.131 1.423h-6.78L77.168 0h7.096zm9.247 0c1.848 0 3.05 2.048 2.223 3.789l-3.63 7.64h-6.611L90.923 0h2.588zm-14.37 3.82h-.238c-.247.48-.535.875-.883 1.286l-1.884 2.193h2.569l.189-2.193c.046-.446.138-.874.248-1.285l-.001-.001z" transform="translate(-41 -30) translate(16 10) translate(25.07) translate(0 20)"/>
                    </g>
                </g>
            </g>
        </g>
    </g>
</svg>
