<?xml version="1.0" encoding="UTF-8"?><svg id="Layer_2" xmlns="http://www.w3.org/2000/svg" viewBox="0 0 165.04 27.72"><defs><style>.cls-1{fill:#1b3344;}.cls-2{fill:#95b70e;}</style></defs><g id="Layer_1-2"><g><g><path class="cls-1" d="M10.63,26.89L0,1.54H7.34l5.07,14.18c.05,.15,.14,.51,.29,1.08,.14,.57,.33,1.34,.56,2.31,.18-.77,.36-1.47,.52-2.09,.16-.62,.28-1.06,.36-1.3L19.18,1.54h7.34L15.89,26.89h-5.26Z"/><path class="cls-1" d="M28.01,3.95c0-.94,.33-1.73,1-2.39,.66-.66,1.46-.99,2.4-.99s1.78,.32,2.43,.97c.65,.65,.98,1.45,.98,2.41s-.33,1.77-1,2.44c-.66,.67-1.47,1-2.41,1s-1.72-.34-2.39-1.02c-.67-.68-1-1.49-1-2.42Zm.31,22.94V9.4h6.18V26.89h-6.18Z"/><path class="cls-1" d="M40.16,26.89V13.77h-2.61v-4.36h2.61V4.19h6.08v5.21h2.61v4.36h-2.61v13.12h-6.08Z"/><path class="cls-1" d="M70.47,9.4V26.89h-5.66v-2.84c-.81,1.21-1.72,2.1-2.73,2.67-1.01,.57-2.2,.85-3.56,.85-2.33,0-4.2-.85-5.59-2.55-1.4-1.7-2.09-3.98-2.09-6.85s.73-5.12,2.19-6.79c1.46-1.68,3.42-2.52,5.89-2.52,1.32,0,2.45,.28,3.4,.84s1.77,1.42,2.45,2.59v-2.87h5.7Zm-5.42,8.72c0-1.36-.36-2.44-1.09-3.24-.73-.8-1.72-1.19-2.98-1.19s-2.25,.4-2.97,1.19c-.72,.79-1.08,1.87-1.08,3.25s.36,2.44,1.09,3.22c.73,.78,1.71,1.18,2.96,1.18s2.25-.39,2.98-1.18c.73-.78,1.09-1.86,1.09-3.22Z"/><path class="cls-1" d="M75.3,26.89V.06h6.18V26.89h-6.18Z"/></g><g><path class="cls-2" d="M81.48,26.89V0h15.53V5.56h-8.79v4.4h8.29v5.44h-8.29v11.5h-6.73Z"/><path class="cls-2" d="M119.98,26.89V9.4h5.82v4.12c.6-1.5,1.42-2.63,2.46-3.38,1.04-.75,2.3-1.13,3.77-1.13,.24,0,.49,0,.74,.03,.25,.02,.5,.04,.75,.08l-.59,5.61c-.37-.13-.73-.22-1.09-.28s-.7-.09-1.04-.09c-1.5,0-2.66,.46-3.47,1.38-.81,.92-1.22,2.22-1.22,3.9v7.24h-6.13Z"/><path class="cls-2" d="M158.93,26.89v-9.54c0-1.51-.19-2.56-.56-3.13-.38-.58-1.02-.87-1.95-.87-1.15,0-1.96,.4-2.41,1.2-.45,.8-.68,2.44-.68,4.92v7.41h-5.96v-9.54c0-1.53-.18-2.59-.55-3.15-.37-.57-1.02-.85-1.94-.85-1.15,0-1.96,.4-2.42,1.19-.46,.79-.69,2.44-.69,4.94v7.41h-5.99V9.4h6.06v3.05c.73-1.23,1.57-2.14,2.52-2.73,.95-.58,2.07-.87,3.37-.87,1.42,0,2.58,.27,3.49,.82,.91,.55,1.56,1.37,1.95,2.47,.68-1.11,1.51-1.93,2.49-2.48s2.13-.81,3.46-.81c1.05,0,1.97,.18,2.76,.53,.79,.35,1.45,.88,1.98,1.58,.43,.55,.73,1.2,.91,1.94,.18,.74,.27,1.94,.27,3.6v10.39h-6.11Z"/></g><g><path class="cls-2" d="M99.44,12.78c-.89,1.48-1.4,3.22-1.4,5.07,0,.54,.04,1.07,.13,1.59,.45-.6,.97-1.15,1.55-1.64,2.01-1.7,4.54-2.55,7.16-2.39h1.32c-2.34-2.36-5.66-3.27-8.75-2.63Z"/><path class="cls-2" d="M102.21,12.08c2.64,.21,5.08,1.4,6.82,3.39l.77,.82c-.21-3.36-2.17-6.27-4.97-7.81-2.03,.66-3.77,1.97-4.99,3.68,.77-.12,1.56-.15,2.36-.08Z"/><path class="cls-2" d="M114.24,23.49c-.14,0-.28,0-.43,0-2.69-.11-5.18-1.26-7.01-3.24l-.81-.83c.07,3.33,1.87,6.28,4.55,7.95,2.31-.64,4.28-2.1,5.57-4.04-.61,.11-1.24,.17-1.87,.17Z"/><path class="cls-2" d="M117.57,15.94c-.43,.62-.93,1.19-1.49,1.72-1.88,1.74-4.3,2.68-6.85,2.68-.13,0-.26,0-.4,0l-1.22-.02c2.42,2.31,5.8,3.12,8.89,2.37,.8-1.43,1.26-3.07,1.26-4.82,0-.66-.06-1.3-.19-1.92Z"/><path class="cls-2" d="M98.31,20.17c.59,2.45,2.09,4.54,4.13,5.89-.13-.72-.19-1.47-.16-2.22,.1-2.67,1.23-5.15,3.17-6.99l.91-.93c-3.3-.03-6.29,1.64-8.05,4.25Z"/><path class="cls-2" d="M113.28,11.72c0,2.69-1.03,5.23-2.93,7.15h0l-.93,.93c3.35-.07,6.32-1.88,7.99-4.59-.68-2.44-2.27-4.51-4.39-5.79,.17,.75,.27,1.52,.27,2.3Z"/><path class="cls-2" d="M108.16,26.09c-1.83-1.97-2.8-4.53-2.71-7.21v-1.28c-2.3,2.41-3.11,5.77-2.38,8.85,1.43,.8,3.07,1.26,4.83,1.26,.66,0,1.3-.06,1.92-.19-.6-.41-1.15-.89-1.65-1.44Z"/><path class="cls-2" d="M107.36,9.71c1.91,1.9,2.97,4.43,2.98,7.12h0v1.26c2.23-2.53,2.9-5.97,2.01-9.04-1.34-.68-2.85-1.06-4.46-1.06-.81,0-1.6,.1-2.35,.28,.65,.4,1.26,.88,1.81,1.44Z"/></g></g></g></svg>