<svg width="166" height="28" viewBox="0 0 166 28" fill="none" xmlns="http://www.w3.org/2000/svg">
<g clip-path="url(#clip0_1_6)">
<path d="M10.63 26.89L0 1.53999H7.34L12.41 15.72C12.46 15.87 12.55 16.23 12.7 16.8C12.84 17.37 13.03 18.14 13.26 19.11C13.44 18.34 13.62 17.64 13.78 17.02C13.94 16.4 14.06 15.96 14.14 15.72L19.18 1.53999H26.52L15.89 26.89H10.63Z" fill="white"/>
<path d="M28.01 3.94999C28.01 3.00999 28.34 2.21999 29.01 1.55999C29.67 0.899992 30.47 0.569992 31.41 0.569992C32.35 0.569992 33.19 0.889992 33.84 1.53999C34.49 2.18999 34.82 2.98999 34.82 3.94999C34.82 4.90999 34.49 5.71999 33.82 6.38999C33.16 7.05999 32.35 7.38999 31.41 7.38999C30.47 7.38999 29.69 7.04999 29.02 6.36999C28.35 5.68999 28.02 4.87999 28.02 3.94999H28.01ZM28.32 26.89V9.39999H34.5V26.89H28.32Z" fill="white"/>
<path d="M40.16 26.89V13.77H37.55V9.41H40.16V4.19H46.24V9.4H48.85V13.76H46.24V26.88H40.16V26.89Z" fill="white"/>
<path d="M70.47 9.4V26.89H64.81V24.05C64 25.26 63.09 26.15 62.08 26.72C61.07 27.29 59.88 27.57 58.52 27.57C56.19 27.57 54.32 26.72 52.93 25.02C51.53 23.32 50.84 21.04 50.84 18.17C50.84 15.3 51.57 13.05 53.03 11.38C54.49 9.7 56.45 8.86 58.92 8.86C60.24 8.86 61.37 9.14 62.32 9.7C63.27 10.26 64.09 11.12 64.77 12.29V9.42H70.47V9.4ZM65.05 18.12C65.05 16.76 64.69 15.68 63.96 14.88C63.23 14.08 62.24 13.69 60.98 13.69C59.72 13.69 58.73 14.09 58.01 14.88C57.29 15.67 56.93 16.75 56.93 18.13C56.93 19.51 57.29 20.57 58.02 21.35C58.75 22.13 59.73 22.53 60.98 22.53C62.23 22.53 63.23 22.14 63.96 21.35C64.69 20.57 65.05 19.49 65.05 18.13V18.12Z" fill="white"/>
<path d="M75.3 26.89V0.0599976H81.48V26.89H75.3V26.89Z" fill="white"/>
<path d="M81.48 26.89V0H97.01V5.56H88.22V9.96H96.51V15.4H88.22V26.9H81.49L81.48 26.89Z" fill="#FF4242"/>
<path d="M119.98 26.89V9.39999H125.8V13.52C126.4 12.02 127.22 10.89 128.26 10.14C129.3 9.38999 130.56 9.00999 132.03 9.00999C132.27 9.00999 132.52 9.00999 132.77 9.03999C133.02 9.05999 133.27 9.07999 133.52 9.11999L132.93 14.73C132.56 14.6 132.2 14.51 131.84 14.45C131.48 14.39 131.14 14.36 130.8 14.36C129.3 14.36 128.14 14.82 127.33 15.74C126.52 16.66 126.11 17.96 126.11 19.64V26.88H119.98V26.89Z" fill="#FF4242"/>
<path d="M158.93 26.89V17.35C158.93 15.84 158.74 14.79 158.37 14.22C157.99 13.64 157.35 13.35 156.42 13.35C155.27 13.35 154.46 13.75 154.01 14.55C153.56 15.35 153.33 16.99 153.33 19.47V26.88H147.37V17.34C147.37 15.81 147.19 14.75 146.82 14.19C146.45 13.62 145.8 13.34 144.88 13.34C143.73 13.34 142.92 13.74 142.46 14.53C142 15.32 141.77 16.97 141.77 19.47V26.88H135.78V9.40001H141.84V12.45C142.57 11.22 143.41 10.31 144.36 9.72001C145.31 9.14001 146.43 8.85001 147.73 8.85001C149.15 8.85001 150.31 9.12001 151.22 9.67001C152.13 10.22 152.78 11.04 153.17 12.14C153.85 11.03 154.68 10.21 155.66 9.66001C156.64 9.11001 157.79 8.85001 159.12 8.85001C160.17 8.85001 161.09 9.03001 161.88 9.38001C162.67 9.73001 163.33 10.26 163.86 10.96C164.29 11.51 164.59 12.16 164.77 12.9C164.95 13.64 165.04 14.84 165.04 16.5V26.89H158.93Z" fill="#FF4242"/>
<path d="M99.44 12.78C98.55 14.26 98.04 16 98.04 17.85C98.04 18.39 98.08 18.92 98.17 19.44C98.62 18.84 99.14 18.29 99.72 17.8C101.73 16.1 104.26 15.25 106.88 15.41H108.2C105.86 13.05 102.54 12.14 99.45 12.78H99.44Z" fill="#FF4242"/>
<path d="M102.21 12.08C104.85 12.29 107.29 13.48 109.03 15.47L109.8 16.29C109.59 12.93 107.63 10.02 104.83 8.48001C102.8 9.14001 101.06 10.45 99.84 12.16C100.61 12.04 101.4 12.01 102.2 12.08H102.21Z" fill="#FF4242"/>
<path d="M114.24 23.49C114.1 23.49 113.96 23.49 113.81 23.49C111.12 23.38 108.63 22.23 106.8 20.25L105.99 19.42C106.06 22.75 107.86 25.7 110.54 27.37C112.85 26.73 114.82 25.27 116.11 23.33C115.5 23.44 114.87 23.5 114.24 23.5V23.49Z" fill="#FF4242"/>
<path d="M117.57 15.94C117.14 16.56 116.64 17.13 116.08 17.66C114.2 19.4 111.78 20.34 109.23 20.34C109.1 20.34 108.97 20.34 108.83 20.34L107.61 20.32C110.03 22.63 113.41 23.44 116.5 22.69C117.3 21.26 117.76 19.62 117.76 17.87C117.76 17.21 117.7 16.57 117.57 15.95V15.94Z" fill="#FF4242"/>
<path d="M98.31 20.17C98.9 22.62 100.4 24.71 102.44 26.06C102.31 25.34 102.25 24.59 102.28 23.84C102.38 21.17 103.51 18.69 105.45 16.85L106.36 15.92C103.06 15.89 100.07 17.56 98.31 20.17Z" fill="#FF4242"/>
<path d="M113.28 11.72C113.28 14.41 112.25 16.95 110.35 18.87L109.42 19.8C112.77 19.73 115.74 17.92 117.41 15.21C116.73 12.77 115.14 10.7 113.02 9.42001C113.19 10.17 113.29 10.94 113.29 11.72H113.28Z" fill="#FF4242"/>
<path d="M108.16 26.09C106.33 24.12 105.36 21.56 105.45 18.88V17.6C103.15 20.01 102.34 23.37 103.07 26.45C104.5 27.25 106.14 27.71 107.9 27.71C108.56 27.71 109.2 27.65 109.82 27.52C109.22 27.11 108.67 26.63 108.17 26.08L108.16 26.09Z" fill="#FF4242"/>
<path d="M107.36 9.71001C109.27 11.61 110.33 14.14 110.34 16.83V18.09C112.57 15.56 113.24 12.12 112.35 9.05001C111.01 8.37001 109.5 7.99001 107.89 7.99001C107.08 7.99001 106.29 8.09001 105.54 8.27001C106.19 8.67001 106.8 9.15001 107.35 9.71001H107.36Z" fill="#FF4242"/>
</g>
<defs>
<clipPath id="clip0_1_6">
<rect width="165.04" height="27.72" fill="white"/>
</clipPath>
</defs>
</svg>
