<svg version="1.1" id="Layer_1" xmlns="http://www.w3.org/2000/svg" xmlns:xlink="http://www.w3.org/1999/xlink" x="0px" y="0px"
	 viewBox="0 0 69 80" style="enable-background:new 0 0 69 80;" fill="#F01616" xml:space="preserve">
	<path d="M66.3,43.2h-24l-2.1,8.5h17.1l-2.6,10.2l-17,0L33.1,80H18.4l5.9-23.9h-7.8l-2-2.9l-0.4,0.4
		c-1.6,1.7-2.8,2.6-5.1,2.6H6c-2.8,0-3.9-0.5-4.8-1.4c-1.3-1.3-1.4-3.2-0.7-6.8c0.6-2.9,1-3.7,2.1-4.7c0.9-0.9,2.4-1.6,4.4-2
		c-0.2-0.5-0.3-1-0.3-1.4c0-0.9,0.1-1.9,0.5-3.3c0.6-2.4,1.3-3.6,2.3-4.6c0.8-0.8,1.6-1.3,2.8-1.5H2.9L10.4,0h12.1
		c1.8,0,2.2,0.5,2.3,2.3l0.6,11.3h0.4L32,1.8C32.8,0.4,33.3,0,34.7,0h13.1l-7.6,30.4h-9.4L35.4,12H35l-9.5,16.7
		c-0.7,1.3-1.3,1.7-2.4,1.7h-1.5c1.1,0.2,1.7,0.6,2.1,1c1.2,1.2,1.2,3,0.3,6.9h-6.7c0.4-1.9,0.4-2.4,0.1-2.6
		c-0.1-0.2-0.4-0.3-1.1-0.3h-0.4c-0.7,0-1.1,0.1-1.3,0.4c-0.2,0.2-0.4,0.6-0.6,1.3c-0.2,0.7-0.2,1.2-0.2,1.4c0,0.7,0.4,1.6,1.3,3.1
		l1.7,2.7l4.1-3.8h7.4l2.1-8.3H69L66.3,43.2L66.3,43.2z M11.5,49.1l-2.1-3.2l-0.9,0.2c-0.3,0-0.5,0.2-0.8,0.3
		c-0.2,0.2-0.3,0.5-0.6,1.6c-0.3,1.4-0.3,2.1,0,2.4c0.3,0.3,0.7,0.4,1.2,0.4h0.3c0.9,0,1.5-0.2,2.1-0.9L11.5,49.1z M12.3,30.4
		c0.7-0.2,1.6-0.2,2.7-0.2h3.4c0.3,0,0.6,0,0.9,0c-0.6-0.3-0.7-0.9-0.8-2L17.2,12h-0.4L12.3,30.4z M24.5,55.6l3.7-14.7l-8.5,7.8
		L24.5,55.6z"/>

</svg>
