<svg xmlns="http://www.w3.org/2000/svg" width="89" height="48" viewBox="0 0 89 48">
    <g fill="none" fill-rule="evenodd">
        <g stroke="#4C4D53">
            <g>
                <g>
                    <g>
                        <g transform="translate(-916 -1467) translate(211 1421) translate(702 47) translate(4)">
                            <g>
                                <path d="M40.5 43C62.868 43 81 36.732 81 29c0-5.323-8.593-9.952-21.246-12.32C54.027 15.608 47.469 15 40.5 15c-4.55 0-8.926.26-13.01.738C11.506 17.61 0 22.84 0 29" transform="translate(3)"/>
                                <path d="M40.5 28C62.868 28 81 21.732 81 14c0-5.323-8.593-9.952-21.246-12.32C54.027.608 47.469 0 40.5 0c-4.55 0-8.926.26-13.01.738C11.506 2.61 0 7.84 0 14" transform="translate(3) matrix(-1 0 0 1 81 0)"/>
                            </g>
                            <circle cx="83.5" cy="13.5" r="3.5" fill="#FFF"/>
                            <circle cx="43.5" cy="28.5" r="3.5" fill="#FFF"/>
                            <circle cx="43.5" cy="42.5" r="3.5" fill="#FFF"/>
                            <circle cx="3.5" cy="28.5" r="3.5" fill="#FFF"/>
                        </g>
                    </g>
                </g>
            </g>
        </g>
    </g>
</svg>
