<svg xmlns="http://www.w3.org/2000/svg" width="60" height="60" viewBox="0 0 60 60">
    <g fill="none" fill-rule="evenodd">
        <g stroke="#4C4D53">
            <g>
                <g>
                    <g>
                        <g transform="translate(-913 -2291) translate(210 2261) translate(702 29) translate(2 17)">
                            <g>
                                <path d="M52 14c0-5.323-5.517-9.952-13.64-12.32C34.684.608 30.474 0 26 0c-2.921 0-5.73.26-8.352.738C7.386 2.61 0 7.84 0 14" transform="translate(3)"/>
                                <path d="M52 28c0-5.323-5.517-9.952-13.64-12.32C34.684 14.608 30.474 14 26 14c-2.921 0-5.73.26-8.352.738C7.386 16.61 0 21.84 0 28" transform="translate(3) rotate(-180 26 21)"/>
                            </g>
                            <circle cx="54.5" cy="13.5" r="3.5" fill="#FFF"/>
                            <circle cx="3.5" cy="13.5" r="3.5" fill="#FFF"/>
                        </g>
                        <g transform="translate(-913 -2291) translate(210 2261) translate(702 29) rotate(-45 50.52 20.086)">
                            <g>
                                <path d="M52 14c0-5.323-5.517-9.952-13.64-12.32C34.684.608 30.474 0 26 0c-2.921 0-5.73.26-8.352.738C7.386 2.61 0 7.84 0 14" transform="translate(3)"/>
                                <path d="M52 28c0-5.323-5.517-9.952-13.64-12.32C34.684 14.608 30.474 14 26 14c-2.921 0-5.73.26-8.352.738C7.386 16.61 0 21.84 0 28" transform="translate(3) rotate(-180 26 21)"/>
                            </g>
                            <circle cx="54.5" cy="13.5" r="3.5" fill="#FFF"/>
                            <circle cx="3.5" cy="13.5" r="3.5" fill="#FFF"/>
                        </g>
                        <g transform="translate(-913 -2291) translate(210 2261) translate(702 29) rotate(-135 33.52 22.086)">
                            <g>
                                <path d="M52 14c0-5.323-5.517-9.952-13.64-12.32C34.684.608 30.474 0 26 0c-2.921 0-5.73.26-8.352.738C7.386 2.61 0 7.84 0 14" transform="translate(3)"/>
                                <path d="M52 28c0-5.323-5.517-9.952-13.64-12.32C34.684 14.608 30.474 14 26 14c-2.921 0-5.73.26-8.352.738C7.386 16.61 0 21.84 0 28" transform="translate(3) rotate(-180 26 21)"/>
                            </g>
                            <circle cx="54.5" cy="13.5" r="3.5" fill="#FFF"/>
                            <circle cx="3.5" cy="13.5" r="3.5" fill="#FFF"/>
                        </g>
                        <g transform="translate(-913 -2291) translate(210 2261) translate(702 29) rotate(90 21.5 23.5)">
                            <g>
                                <path d="M52 14c0-5.323-5.517-9.952-13.64-12.32C34.684.608 30.474 0 26 0c-2.921 0-5.73.26-8.352.738C7.386 2.61 0 7.84 0 14" transform="translate(3)"/>
                                <path d="M52 28c0-5.323-5.517-9.952-13.64-12.32C34.684 14.608 30.474 14 26 14c-2.921 0-5.73.26-8.352.738C7.386 16.61 0 21.84 0 28" transform="translate(3) rotate(-180 26 21)"/>
                            </g>
                            <circle cx="54.5" cy="13.5" r="3.5" fill="#FFF"/>
                            <circle cx="3.5" cy="13.5" r="3.5" fill="#FFF"/>
                        </g>
                    </g>
                </g>
            </g>
        </g>
    </g>
</svg>
